<?xml version="1.0" encoding="utf-8"?>
<!-- Svg Vector Icons : http://www.onlinewebfonts.com/icon -->
<!DOCTYPE svg PUBLIC "-//W3C//DTD SVG 1.1//EN" "http://www.w3.org/Graphics/SVG/1.1/DTD/svg11.dtd">
<svg version="1.1" xmlns="http://www.w3.org/2000/svg" xmlns:xlink="http://www.w3.org/1999/xlink" x="0px" y="0px" viewBox="0 0 1000 1000" enable-background="new 0 0 1000 1000" xml:space="preserve" fill="white">
<metadata> Svg Vector Icons : http://www.onlinewebfonts.com/icon </metadata>
<g><g transform="translate(0.000000,511.000000) scale(0.100000,-0.100000)"><path d="M4059.9,4617.5c-1138.5-209.7-2074.6-385.2-2079.4-385.2c-2.5-2.4-2.5-1857.6,0-4127.2l7.3-4124.8l2096.5-385.2c1153.1-209.6,2116-382.7,2140.4-385.2c36.6,0,41.5,29.3,41.5,304.7v304.7h877.6h877.6V110v4290.5h-877.6h-877.6v304.7V5010l-65.8-2.4C6161.3,5005.1,5200.8,4829.6,4059.9,4617.5z M5876.1,110c0-3695.7-4.9-4436.8-31.7-4436.8c-34.1,0-3322.8,597.3-3422.7,621.6l-56.1,12.2V110c0,2091.6,2.4,3803,7.3,3803c2.4,0,767.9,143.8,1699.2,314.5c931.3,173.1,1718.7,316.9,1750.3,316.9l53.6,2.4V110z M7631.3,110v-3900.5h-682.6h-682.6V110v3900.5h682.6h682.6V110z"/><path d="M4608.4,977.9c-158.5-41.4-280.3-124.3-377.9-251.1C3938,344,3967.3-248.4,4293.9-575c207.2-207.2,485.1-258.4,736.2-134.1c165.8,80.4,268.2,192.6,368.1,404.7c70.7,146.3,75.6,177.9,75.6,414.4s-4.9,268.2-75.6,414.4c-95.1,202.3-192.6,314.5-343.7,394.9C4908.3,997.4,4752.2,1019.3,4608.4,977.9z M4859.5,585.4C5000.9,519.6,5096,324.5,5096,110c0-170.6-43.9-290.1-146.3-399.8c-80.4-85.3-107.3-99.9-192.6-99.9c-331.5,0-468.1,646-192.6,906.9C4686.4,629.2,4740.1,643.9,4859.5,585.4z"/></g></g>
</svg>