<?xml version="1.0" encoding="iso-8859-1"?>
<!-- Generator: Adobe Illustrator 19.0.0, SVG Export Plug-In . SVG Version: 6.00 Build 0)  -->
<svg version="1.1" id="Capa_1" xmlns="http://www.w3.org/2000/svg" fill="#fff" xmlns:xlink="http://www.w3.org/1999/xlink" x="0px" y="0px"
	 viewBox="0 0 59.988 59.988" style="enable-background:new 0 0 59.988 59.988;" xml:space="preserve">
<g>
	<path d="M36.994,21.402L49.701,8.695c0.286-0.286,0.372-0.716,0.217-1.09c-0.154-0.374-0.52-0.617-0.924-0.617h-8
		c-0.553,0-1,0.448-1,1s0.447,1,1,1h5.586l-11,11h-1.586v-4c0-0.552-0.447-1-1-1h-2V13.97c1.222-0.204,2.349-0.775,3.242-1.669
		c1.134-1.133,1.758-2.64,1.758-4.242c0-1.603-0.624-3.109-1.758-4.243l-3.535-3.536c-0.375-0.375-1.039-0.375-1.414,0l-3.535,3.536
		c-1.134,1.133-1.758,2.64-1.758,4.243c0,1.603,0.624,3.109,1.758,4.242c0.893,0.894,2.02,1.465,3.242,1.669v1.018h-2
		c-0.553,0-1,0.448-1,1v4h-1.586l-11-11h5.586c0.553,0,1-0.448,1-1s-0.447-1-1-1h-8c-0.404,0-0.77,0.244-0.924,0.617
		c-0.155,0.374-0.069,0.804,0.217,1.09l12.707,12.707v4.859c-5.14,1.13-9,5.713-9,11.187v21.54c0,0.552,0.447,1,1,1h30
		c0.553,0,1-0.448,1-1v-6h-15c-0.553,0-1-0.448-1-1v-14c0-0.552,0.447-1,1-1h14.977c-0.211-5.267-3.986-9.626-8.977-10.725v-1.275h3
		v1c0,0.552,0.447,1,1,1h4c0.553,0,1-0.448,1-1v-4c0-0.552-0.447-1-1-1h-4c-0.553,0-1,0.448-1,1v1h-3V21.402z M28.994,9.988
		c0-0.552,0.447-1,1-1s1,0.448,1,1v3h-2V9.988z M25.454,25.988h-0.46v-4h2h6h2v4h-0.46H25.454z"/>
	<rect x="31.994" y="38.988" width="14" height="12"/>
</g>
<g>
</g>
<g>
</g>
<g>
</g>
<g>
</g>
<g>
</g>
<g>
</g>
<g>
</g>
<g>
</g>
<g>
</g>
<g>
</g>
<g>
</g>
<g>
</g>
<g>
</g>
<g>
</g>
<g>
</g>
</svg>
