<?xml version="1.0" encoding="utf-8"?>
<!-- Svg Vector Icons : http://www.onlinewebfonts.com/icon -->
<!DOCTYPE svg PUBLIC "-//W3C//DTD SVG 1.1//EN" "http://www.w3.org/Graphics/SVG/1.1/DTD/svg11.dtd">
<svg version="1.1" xmlns="http://www.w3.org/2000/svg" xmlns:xlink="http://www.w3.org/1999/xlink" x="0px" y="0px" viewBox="0 0 1000 1000" enable-background="new 0 0 1000 1000" xml:space="preserve" fill="white">
<metadata> Svg Vector Icons : http://www.onlinewebfonts.com/icon </metadata>
<g><g transform="translate(0.000000,511.000000) scale(0.100000,-0.100000)"><path d="M4509.1,4988.6c-1899.2-184-3550.5-1508.1-4158.8-3333.2C-45.9,461.6,30.8-831.7,562.5-1974.3C961.2-2828.1,1636-3579.6,2443.8-4072.9c1935-1178.4,4419.5-884.4,6019.7,718.3c1919.6,1917.1,1914.6,5022.8-10.2,6939.9c-393.6,391.1-879.3,731.1-1370.1,961.1C6283.1,4919.6,5391,5072.9,4509.1,4988.6z M5454.9,4605.1c1658.9-178.9,3059.7-1214.2,3709-2735.1c495.9-1163,467.8-2551-74.1-3688.5C7957.3-4195.6,5061.2-5113.3,2771-3825c-511.2,288.9-1035.2,751.5-1390.5,1229.5C33.3-785.7,212.3,1709,1807.3,3301.5C2771,4265.2,4125.7,4750.8,5454.9,4605.1z"/><path d="M4552.6,4400.6c-764.3-79.2-1564.4-398.8-2172.7-864C940.8,2435,340.1,525.5,889.6-1194.7C1247.5-2314.3,2022-3219.2,3070-3745.7c1952.9-976.4,4309.6-347.6,5528.9,1477.4c639,958.6,866.5,2198.3,608.4,3323C8716.5,3191.6,6722.7,4625.6,4552.6,4400.6z M4961.6,4030c46-17.9,115-140.6,115-201.9c0-66.5-140.6-191.7-217.3-191.7c-94.6,0-191.7,104.8-191.7,207.1C4667.6,3994.2,4813.3,4086.2,4961.6,4030z M6137.4,3876.6c61.4-25.6,117.6-153.4,99.7-227.5c-20.4-79.2-125.3-166.1-201.9-166.1c-99.7,0-191.7,94.6-191.7,199.4C5843.4,3840.9,5984,3932.9,6137.4,3876.6z M3819,3800c166.1-115,92-365.5-107.4-368.1c-181.5,0-268.4,245.4-127.8,355.3C3665.6,3851.1,3742.3,3856.2,3819,3800z M7272.3,3314.3c97.1-125.2,40.9-294-109.9-332.3c-71.6-17.9-207,46-230,104.8C6850.5,3304.1,7131.7,3493.2,7272.3,3314.3z M2824.6,3186.5c79.2-99.7,69-196.8-25.6-276.1c-102.2-86.9-163.6-84.4-255.6,7.7c-92,92-94.6,186.6-10.2,271C2620.1,3278.5,2753.1,3276,2824.6,3186.5z M5396.1,2601.1c125.3-122.7,38.3-345.1-132.9-345.1c-115,2.6-212.2,107.4-212.2,230.1c0,81.8,112.5,178.9,204.5,178.9C5304.1,2665,5357.7,2642,5396.1,2601.1z M8105.6,2498.9c84.3-84.4,81.8-178.9-10.2-271c-92-92-186.6-94.6-270.9-10.2c-89.5,86.9-86.9,219.8,2.5,291.4C7919,2580.7,8028.9,2578.1,8105.6,2498.9z M4192.2,2458c84.4-66.5,94.6-224.9,15.3-304.2c-122.7-122.7-332.3-23-332.3,155.9c0,107.4,89.5,201.9,191.7,201.9C4097.6,2511.7,4153.8,2488.7,4192.2,2458z M2029.7,2325.1c117.6-109.9,25.6-324.6-143.1-329.8c-217.3-7.7-294,291.4-97.1,378.3C1881.4,2412,1947.9,2399.2,2029.7,2325.1z M6477.3,2215.2c168.7-117.6,92-365.5-112.5-368.1c-104.8,0-184,66.5-204.5,171.3c-12.8,69-2.6,94.6,61.3,161C6308.6,2263.7,6390.4,2276.5,6477.3,2215.2z M3272,1729.5c86.9-86.9,86.9-196.8,2.6-278.6c-122.7-125.2-345.1-38.3-345.1,135.5c0,97.1,109.9,209.6,204.5,209.6C3174.8,1796,3231.1,1767.8,3272,1729.5z M8627,1502c122.7-61.3,143.1-207.1,40.9-306.7c-86.9-89.5-219.8-86.9-291.4,2.6c-79.2,99.7-69,196.8,25.6,276.1C8491.6,1550.6,8527.4,1555.7,8627,1502z M1536.3,1259.2c71.6-71.6,66.5-222.4-10.2-283.7c-132.9-107.3-334.9-28.1-334.9,132.9C1191.3,1312.8,1390.6,1399.8,1536.3,1259.2z M7267.2,1279.6c63.9-61.3,76.7-184,25.6-253.1c-86.9-115-235.2-117.6-324.6-5.1c-66.4,84.3-63.9,163.6,2.5,247.9C7039.7,1356.3,7180.3,1361.4,7267.2,1279.6z M5114.9,1294.9c46-17.9,115-140.6,115-201.9c0-63.9-140.6-191.7-212.1-191.7c-104.8,0-196.8,92-196.8,199.4C4821,1259.2,4961.6,1351.2,5114.9,1294.9z M4281.6,758.2c99.7-125.2,43.5-278.6-117.6-327.2c-109.9-33.2-235.2,74.1-237.7,199.4C3926.3,811.8,4171.7,898.7,4281.6,758.2z M6009.6,735.2c69-66.5,79.3-130.4,35.8-224.9c-30.7-66.5-120.1-120.1-204.5-120.1c-79.3,0-176.4,112.5-176.4,204.5c0,48.6,23,102.2,63.9,140.6c38.3,40.9,92,63.9,140.6,63.9C5917.5,799.1,5971.2,776.1,6009.6,735.2z M2809.3,643.1c84.4-104.8,51.1-265.8-63.9-317c-107.3-43.5-196.8-17.9-253,74.1c-66.5,109.9-61.3,161,28.1,250.5c66.5,63.9,92,74.1,161,61.3C2727.5,704.5,2783.7,671.3,2809.3,643.1z M8877.5,308.3c122.7-115,33.2-352.7-132.9-352.7c-89.5,0-217.3,127.8-217.3,217.3C8527.4,333.8,8754.9,423.3,8877.5,308.3z M7497.2,129.4c122.7-115,33.2-352.7-132.9-352.7c-76.7,0-217.3,125.2-217.3,191.7c0,56.2,69,184,107.4,199.4C7333.6,200.9,7441,183,7497.2,129.4z M1403.4,78.2c58.8-71.6,56.2-212.1-7.7-276.1c-104.8-104.8-311.9-43.5-345.1,102.2C1007.2,101.2,1273.1,231.6,1403.4,78.2z M4243.3-200.4c138-109.9,53.7-355.3-122.7-355.3c-89.5,2.5-145.7,38.3-189.2,120.1c-46,86.9-35.8,132.9,43.4,214.7C4064.4-133.9,4148.7-126.3,4243.3-200.4z M6009.6-249c71.6-71.6,66.5-222.4-10.2-283.7c-132.9-107.3-334.9-28.1-334.9,132.9C5664.5-195.3,5863.9-108.4,6009.6-249z M2891.1-517.3c132.9-130.4,51.1-345.1-130.4-345.1c-191.7,0-276.1,222.4-127.8,347.6C2722.4-435.5,2811.9-438.1,2891.1-517.3z M5140.5-747.4c132.9-130.4,30.7-345.1-166.1-345.1c-79.2,0-178.9,112.5-178.9,199.4C4795.4-703.9,5010.1-614.5,5140.5-747.4z M8690.9-839.4c140.6-109.9,46-355.3-138-355.3c-48.6,0-102.2,23-140.6,63.9C8225.7-946.8,8483.9-675.8,8690.9-839.4z M7141.9-995.4c94.6-102.2,97.1-186.6,10.2-276.1c-132.9-132.9-304.2-79.3-350.2,107.4c-15.3,56.2-2.5,84.3,58.8,148.2C6955.3-921.2,7062.7-913.6,7141.9-995.4z M1638.6-1066.9c120.1-120.1,23-342.5-150.8-342.5c-155.9,0-255.6,148.3-189.2,286.3C1365.1-987.7,1528.7-962.1,1638.6-1066.9z M3709.1-1642.1c107.4-104.8,76.7-260.7-63.9-319.5c-89.5-38.3-214.7,0-255.6,79.2c-71.6,132.9,30.7,304.2,178.9,304.2C3617-1578.1,3670.7-1601.2,3709.1-1642.1z M6290.7-1821c132.9-130.4,30.7-345.1-166.1-345.1c-81.8,0-178.9,112.5-178.9,207C5945.7-1775,6160.4-1688,6290.7-1821z M8177.2-1913c58.8-74.1,56.2-214.7-7.7-278.6c-63.9-63.9-204.5-66.5-278.6-5.1c-28.1,23-61.3,79.2-69,125.3c-12.8,69-2.6,94.6,63.9,163.6c69,66.5,94.6,76.7,163.6,63.9C8095.4-1851.7,8151.6-1884.9,8177.2-1913z M2200.9-2076.6c163.6-161-10.2-414.1-230.1-329.8c-61.3,25.6-117.6,153.4-99.7,227.5c20.4,81.8,125.3,166.2,207.1,166.2C2111.5-2012.7,2167.7-2040.8,2200.9-2076.6z M5148.1-2130.3c30.7-35.8,56.2-92,56.2-127.8c0-89.5-107.4-189.1-204.5-189.1c-99.7,0-204.5,99.7-204.5,191.7c0,40.9,30.7,99.7,76.7,145.7C4964.1-2020.4,5053.6-2025.5,5148.1-2130.3z M7336.2-2733.5c97.1-84.4,112.5-199.4,35.8-283.7c-81.8-94.6-194.3-112.5-281.2-46c-166.2,132.9-79.2,375.8,138,383.4C7251.8-2677.3,7300.4-2702.8,7336.2-2733.5z M3085.4-2879.2c92-92,94.6-186.6,10.2-270.9c-127.8-130.4-345.1-46-345.1,132.9c0,107.3,97.1,212.2,191.7,212.2C2983.1-2805.1,3039.3-2835.8,3085.4-2879.2z M6324-3306.1c71.6-81.8,71.6-168.7-2.5-255.6c-79.2-89.5-196.8-94.6-286.3-10.2c-94.6,86.9-86.9,207,17.9,294C6147.6-3198.7,6234.5-3206.4,6324-3306.1z M4118-3306.1c46-17.9,115-140.6,115-201.9c0-66.4-140.6-191.7-214.7-191.7c-173.8,0-265.8,237.7-138,357.9C3936.5-3290.8,4036.2-3275.4,4118-3306.1z M5140.5-3482.5c35.8-33.2,63.9-92,63.9-127.8c0-81.8-127.8-217.3-204.5-217.3c-76.7,0-204.5,135.5-204.5,217.3c0,92,104.8,191.7,204.5,191.7C5048.5-3418.6,5102.1-3441.6,5140.5-3482.5z"/></g></g>
</svg>