<?xml version="1.0" encoding="utf-8"?>
<!-- Svg Vector Icons : http://www.onlinewebfonts.com/icon -->
<!DOCTYPE svg PUBLIC "-//W3C//DTD SVG 1.1//EN" "http://www.w3.org/Graphics/SVG/1.1/DTD/svg11.dtd">
<svg version="1.1" xmlns="http://www.w3.org/2000/svg" xmlns:xlink="http://www.w3.org/1999/xlink" x="0px" y="0px" viewBox="0 0 1000 1000" enable-background="new 0 0 1000 1000" xml:space="preserve" fill="white">
<metadata> Svg Vector Icons : http://www.onlinewebfonts.com/icon </metadata>
<g><g transform="translate(0.000000,512.000000) scale(0.100000,-0.100000)"><path d="M4528.2,5002.5c-415.6-40.2-959.5-170.4-1292.7-310.2l-143.6-61.3l-1292.7-9.6l-1292.7-9.6L497,3319.1l-9.6-1292.7l-61.3-143.6C89.1,1082.3,6.7,0.3,209.7-940c47.9-216.4,172.4-620.5,235.5-754.5c42.1-90,42.1-99.6,51.7-1382.7l9.6-1292.7l1292.7-9.6l1292.7-9.6l143.6-61.3c476.8-201.1,1170.1-331.3,1761.9-331.3c591.7,0,1285,130.2,1761.9,331.3l143.6,61.3l1292.7,9.6l1292.7,9.6l5.7,1271.6l3.8,1271.6l65.1,164.7C9775.5-1127.7,9900-472.7,9900,121s-124.5,1248.6-337.1,1782.9l-65.1,164.7l-3.8,1271.6l-5.7,1271.6l-1292.7,9.6l-1292.7,9.6l-143.6,61.3C6144.5,4950.8,5269.3,5071.4,4528.2,5002.5z M5323,4602.3c1080.1-84.3,2035.7-515.2,2803.7-1262c266.2-260.4,417.5-444.3,626.2-758.4c980.5-1470.8,980.5-3451,0-4921.8c-208.7-314.1-360-497.9-626.2-758.4c-563-547.7-1250.6-938.4-1985.9-1126.1c-1549.3-398.3-3136.9,21.1-4272.5,1126.1C1602-2837.8,1450.7-2654,1242-2339.9C544.9-1294.3,330.4,11.8,652.1,1264.3c149.4,589.8,463.4,1204.6,865.6,1700.6c172.4,212.6,542,568.8,760.3,731.6C3178.1,4370.5,4239,4686.5,5323,4602.3z M2256.9,4192.4c-3.8-3.8-93.8-70.9-199.2-151.3c-363.9-273.9-706.7-616.7-980.5-980.5c-80.4-105.3-147.5-195.3-151.3-199.2s-7.7,294.9-7.7,664.5v674.1h674.1C1962,4200.1,2260.8,4196.2,2256.9,4192.4z M9076.5,3526c0-369.6-3.8-668.4-7.7-664.5c-3.8,3.8-70.8,93.8-151.3,199.2c-283.4,377.3-603.3,697.1-980.5,980.5c-105.3,80.4-195.3,147.4-199.2,151.3c-3.8,3.8,294.9,7.7,664.5,7.7h674.1V3526z M1077.3-2818.7c283.4-377.3,603.2-697.1,980.5-980.5c105.3-80.4,195.3-147.5,199.2-151.3s-294.9-7.7-664.5-7.7H918.3v674.1c0,369.6,3.8,668.4,7.7,664.5S996.8-2713.3,1077.3-2818.7z M9070.8-3952.4c-3.8-3.8-306.4-3.8-670.3-1.9l-662.6,5.7l185.8,137.9c367.7,273.8,729.7,635.8,1005.4,1005.4l137.9,185.8l5.7-662.6C9074.6-3646,9074.6-3948.6,9070.8-3952.4z"/><path d="M4509.1,4179c-773.7-99.6-1526.3-423.2-2121.9-917.3c-93.8-76.6-162.8-145.6-153.2-151.3c7.7-7.7,105.3-86.2,216.4-174.3c421.3-335.1,1106.9-969,1265.9-1170.1l55.5-68.9L3519,1789c-559.2,208.8-1218,396.4-1660.4,476.9c-325.6,57.5-302.6,63.2-407.9-120.6C1094.5,1522.8,918.3,852.5,918.3,121c0-331.3,57.5-850.3,99.6-890.5c3.8-3.8,139.8,44,302.6,107.2c413.7,158.9,946,331.3,1338.6,430.9c183.9,46,340.9,84.3,350.5,84.3s-63.2-67-160.9-147.5c-482.6-398.3-1038-938.4-1323.3-1285c-82.4-97.7-147.5-181.9-147.5-189.6c0-21.1,120.6-226,233.6-392.6c471.1-704.7,1216.1-1285,2010.8-1564.6l166.6-57.5l11.5,90c76.6,543.9,191.5,1105,327.5,1593.3c82.3,296.8,120.6,406,122.6,350.4c1.9-78.5,149.4-819.6,220.2-1112.7c84.3-340.9,235.5-821.6,314.1-1003.5l38.3-91.9h235.5c898.2,0,1828.9,342.8,2548.9,938.4c93.8,76.6,162.8,145.5,153.2,151.3c-7.7,7.6-105.3,86.2-216.4,174.3c-111.1,88.1-291.1,239.4-402.2,333.2c-229.8,199.2-827.3,779.4-884.8,859.9l-38.3,51.7l103.4-40.2c453.9-185.7,1363.5-453.9,1813.6-534.3c325.6-57.5,302.6-63.2,407.9,120.6c356.2,622.4,532.4,1292.7,532.4,2024.2c0,333.2-57.5,850.3-99.6,892.4c-3.8,3.8-107.2-32.6-227.9-80.4c-476.9-187.7-1145.2-400.2-1595.3-505.6c-91.9-21.1-170.4-38.3-176.2-38.3c-5.8,0,126.4,114.9,293,254.7C7749.4,1046,8333.5,1632,8569,1946l53.6,70.9L8500.1,2218C8088.3,2901.7,7498.5,3443.6,6788,3788.3c-136,67-323.7,147.5-415.6,180l-166.6,57.5l-11.5-90c-38.3-271.9-134.1-796.7-193.4-1057.1c-90-394.5-233.6-911.6-249-894.3c-3.8,3.8-28.7,136-57.5,293c-103.4,610.9-275.8,1279.3-434.7,1698.7l-80.4,214.5l-268.1,1.9C4763.8,4194.3,4583.8,4188.6,4509.1,4179z M4976.3,3545.1c145.5-459.6,331.3-1304.2,375.3-1712.1l13.4-118.7l-101.5,19.2c-178.1,32.5-559.2,7.7-731.6-47.9l-147.5-47.9l-237.5,262.3c-367.7,402.2-879,896.3-1204.6,1162.5l-72.8,59.4l157,101.5c214.5,137.9,580.3,310.2,821.6,390.7c296.8,95.8,704.7,172.4,969,181.9l78.5,1.9L4976.3,3545.1z M6698,3378.5c517.1-260.4,1026.5-716.2,1354-1212.2c70.9-109.2,72.8-111.1,38.3-162.8c-63.2-95.8-722-741.1-995.8-974.8c-312.1-266.2-526.6-436.6-534.3-427.1c-1.9,3.8-26.8,69-55.5,141.7c-70.9,183.8-185.8,356.2-354.3,526.7l-141.7,143.6l116.8,373.4c183.8,597.5,273.9,946,365.8,1442c23,122.6,46,224.1,49.8,224.1C6546.7,3453.2,6615.6,3418.7,6698,3378.5z M2251.2,1758.4c180-46,486.4-136,679.9-199.2c339-111.1,833.1-293,854.1-316c5.7-3.8-28.7-59.4-76.6-120.6c-47.9-61.3-116.8-166.6-153.2-235.6c-70.9-132.1-166.6-411.7-166.6-488.3c0-32.6-13.4-49.8-42.1-57.5c-24.9-5.7-204.9-44-402.2-86.2C2521.2,163.1,2103.7,46.3,1669-101.2c-172.4-59.4-319.8-101.5-325.6-93.8c-24.9,23-26.8,455.8-3.8,670.3c44,434.7,153.2,831.1,325.6,1193.1l95.8,199.2l80.4-13.4C1887.3,1846.5,2071.2,1804.3,2251.2,1758.4z M5255.9,1317.9c697.1-145.6,1135.6-911.6,903.9-1578c-69-195.3-155.1-333.2-300.7-480.7c-484.5-484.5-1237.1-484.5-1723.5,0c-484.5,480.7-484.5,1241-1.9,1725.5C4432.5,1281.5,4842.3,1404.1,5255.9,1317.9z M8672.4,153.5c3.8-551.6-114.9-1097.3-344.7-1579.9l-93.8-199.2l-80.4,13.4c-181.9,28.7-756.5,185.8-1089.7,294.9c-339,111.1-833.1,293-854.1,314.1c-5.7,5.7,28.7,61.3,76.6,122.6c46,61.3,111.1,158.9,143.6,216.4c67,120.6,176.2,430.9,176.2,505.6c0,34.5,11.5,51.7,44,59.4c23,5.7,201.1,44,394.5,86.2c193.4,42.1,492.2,116.8,660.7,164.7c300.6,84.3,854.1,264.3,911.6,296.8C8659,471.4,8670.5,412.1,8672.4,153.5z M3471.1-457.4c53.6-170.4,201.1-396.4,362-561.1l151.3-153.2l-124.5-402.2c-147.5-471.1-250.9-873.3-337.1-1311.8c-34.5-174.3-65.1-317.9-67-321.7c-11.5-13.4-314.1,151.3-478.8,258.5c-302.6,199.2-612.8,478.8-835,752.6c-103.4,126.4-266.2,367.7-266.2,392.6c0,34.5,526.7,574.5,798.6,817.7c249,224.1,733.5,628.1,754.5,628.1C3434.7-357.8,3453.9-403.8,3471.1-457.4z M6203.9-2031.6c247.1-252.8,645.4-624.3,848.4-789l72.8-59.4l-149.4-95.8c-509.4-327.5-1089.7-519-1719.7-572.6l-155.1-11.5l-80.4,254.7c-147.5,461.5-333.2,1304.2-377.3,1714l-13.4,118.8l101.5-19.2c178.1-32.6,561.1-7.7,725.8,47.9l143.6,47.9l162.8-176.2C5851.5-1667.7,6050.7-1874.5,6203.9-2031.6z"/><path d="M4907.4,301c-74.7-36.4-128.3-141.7-111.1-218.3c15.3-70.9,91.9-147.5,162.8-162.8c78.5-17.2,181.9,36.4,218.3,114.9c17.2,34.5,30.6,72.8,30.6,86.2c0,57.5-65.1,153.2-124.5,180C5005.1,339.3,4984,339.3,4907.4,301z"/><path d="M1230.5,3977.9c-74.7-36.4-128.3-141.7-111.1-218.3c15.3-70.9,91.9-147.5,162.8-162.8c78.5-17.2,181.9,36.4,218.3,114.9c38.3,78.5,38.3,93.8,0,172.4c-28.7,61.3-124.5,124.5-183.8,124.5C1303.2,4008.6,1264.9,3993.3,1230.5,3977.9z"/><path d="M8584.3,3977.9c-74.7-36.4-128.3-141.7-111.1-218.3c15.3-70.9,91.9-147.5,162.8-162.8c78.5-17.2,181.9,36.4,218.3,114.9c17.2,34.5,30.6,72.8,30.6,86.2c0,57.5-65.1,153.2-124.5,180C8682,4016.2,8660.9,4016.2,8584.3,3977.9z"/><path d="M1230.5-3375.9c-74.7-36.4-128.3-141.7-111.1-218.3c15.3-70.9,91.9-147.5,162.8-162.8c78.5-17.2,181.9,36.4,218.3,114.9c38.3,78.5,38.3,93.8,0,172.4c-28.7,61.3-124.5,124.5-183.8,124.5C1303.2-3345.3,1264.9-3360.6,1230.5-3375.9z"/><path d="M8584.3-3375.9c-74.7-36.4-128.3-141.7-111.1-218.3c15.3-70.9,91.9-147.5,162.8-162.8c78.5-17.2,181.9,36.4,218.3,114.9c17.2,34.5,30.6,72.8,30.6,86.2c0,57.4-65.1,153.2-124.5,180C8682-3337.6,8660.9-3337.6,8584.3-3375.9z"/></g></g>
</svg>